<svg xmlns="http://www.w3.org/2000/svg" viewBox="0 0 1080 540"><defs><style>.a{fill:#154c88;}.b{fill:#1d2c5d;}.c{fill:#016cb1;}.d{fill:#306db2;}.e{fill:#f90;}.f{fill:#c59f0a;}.g{fill:#3467ae;}.h{fill:#395fa8;}.i{fill:#2e70b5;}.j{fill:#3b5ca6;}.k{fill:#b27212;}</style></defs><title>Prancheta 1logo-pokemon</title><path class="a" d="M84.25,294.29l1.64-.74A1.67,1.67,0,0,1,84.25,294.29Z"/><path class="b" d="M319.39,232.88l1.7-.66Z"/><path class="c" d="M498,173.13l-1,.89Z"/><path class="d" d="M584.42,263.67h0Z"/><path class="d" d="M583.5,264.32l0,0s0,0,0,.05Z"/><path class="d" d="M1007.4,211.7q-32-7.8-64-15.58c-2.67-.65-5.32-1.83-8.2-1-1.36,8.8-3.94,17.3-6,25.92l-1.08,0q-2.07-10.28-4.15-20.55c-.08-7.51-3.75-11.4-11.38-11.5a23.14,23.14,0,0,1-4.33-.94q-19.71-4.22-39.42-8.4c-11.4-3.08-23-5.3-34.55-7.73-.32-.07-.73.24-1.1.37q0,8.13.1,16.24c1.24,3.95.52,8,.47,12l.32,20.37,12.36,3c1.83,2.34.43,4.8.15,7.17-.14,1.21-1.39.95-2.29.53-1.8-.84-3.59-1.71-5.38-2.56l-13-3.26c-2.69-.38-5.54.51-8.09-1-2.52.27-5,.6-7.57.82-9.85.85-19.27,3.19-27.9,8.2-3.81,1-6.63,4-10.39,5.6-.3-1.34-.64-2.49-.83-3.67-4-25.46-8.14-50.9-12-76.39-.47-3.11-1.51-3.93-4.53-3.9-17.34.13-34.68.05-52,.08-1.16,0-2.44-.38-3.46.58-.24,9.07-.24,9.07-9.18,9.07l-6.82,0-26,.2c-7.11-.11-14.22-.51-21.31.21a245.45,245.45,0,0,1-4.16,24.71q-1,7.33-2.06,14.68c-.11.79-.05,1.74-.87,2.13s-1.4-.46-1.9-1q-5.07-5.94-10.13-11.9a7.36,7.36,0,0,1-1.36-.8,74.85,74.85,0,0,0-33.44-17.37,98.16,98.16,0,0,0-17.71-2.9c1.18-1.72,2.82-2.11,4.18-2.85,14.54-7.88,29.07-15.79,43.72-23.45,3-1.56,3.06-2.68,1.29-5.28-10.74-15.8-21.33-31.69-31.93-47.58-.78-1.18-2.12-2.15-1.89-3.85h-1.61c.24.8-.49,1.07-.85,1.54-2.79,4.72-6.91,8.29-10.51,12.31l-.6.68-.76.43c-1.89,4.07-5.62,6.61-8.32,10L552,121.48c-.33,4.11-.79,8.21-.78,12.34,0-4.13.45-8.23.78-12.34-2.5,1.52-3.73,4.43-6.37,5.8-2.74,5.31-7.31,9.14-11,13.64-6.63,8-13.55,15.81-20.32,23.72a11.31,11.31,0,0,0-1.15,2.08c3,3.78,5.9,7.61,9,11.33,1.37,1.66,1.45,2.59-.78,3.47-5.12,2-9.67,5.13-14.43,7.85-2.65,1.56-5.38,3-7.93,4.73s-4.37,1.29-6.64-.76q-24.54-22-49.32-43.8c-1-.89-1.88-3.1-3.88-1.25-1.84,6.11-5.76,11.2-8.32,17-.81,1.84-1.73,3.64-2.61,5.45,1,1,.92,2.13.78,3.3.14-1.17.25-2.3-.78-3.3l-7,12.61c-.49-7.72-1.13-15.36-.13-23l.06-7.26c.05-4.5,0-4.52-4.32-3.13q-40.66,13-81.32,26c-1.24.39-2.72.44-3.52,1.75L333,190.9c.1,8.61,1.29,17.18.94,25.81.27,2.66.53,5.32.8,8,4.14-1.08,8.3-2.12,12.43-3.27,2-.55,2.7.15,2.87,2.06q.74,8.6,1.6,17.18c.3,2.91-.53,4.07-3.57,2.81a70.66,70.66,0,0,0-13.57-3.58c-8.05-.7-16.08-1.14-24,1.1-11.49,1.49-21.43,6.86-31.56,13.22.18-1.45.23-2.11.35-2.76,4.1-21.44-.8-40.7-15-57.19-22.56-26.25-52.57-33.14-85.53-31.74q0,8.5,0,17c12-.16,24,.56,35.65,3.46a67.93,67.93,0,0,1,39,25.61c9,12,11.73,25.46,8.77,40.1a79.7,79.7,0,0,1-17.9,36.86l0,0a2.35,2.35,0,0,1-1.3,1.88l-.21-.21.21.22a1.78,1.78,0,0,1-1.21,1.33l0-.05-.85,1.05c-8.32,10.69-18.86,18.86-30,26.42-.91.62-2.43.71-2.42,2.32,3.54,10.41,5.67,21.2,8.47,31.8,4.29,16.22,8.38,32.5,12.77,48.69.76,2.84.69,4.22-2.52,4.69a34.57,34.57,0,0,0-5.73,1.81c-8,2.57-16.06,5-24,7.77-2.32.81-2.94,0-3.78-1.89-4.18-9.42-8.5-18.78-12.77-28.16q-15.65-35.13-31.29-70.28c-8.86-19.87-17.85-39.68-26.58-59.61-1.34-3.07-2.55-3.26-5.2-1.78-4,2.22-8.2,4-12.26,6.14-1.59.83-2.59.81-3.58-.89Q90.34,236.39,78.4,216.05c-2.58-2.21-.4-3,1.19-4a241.68,241.68,0,0,1,53.76-24.32,191.35,191.35,0,0,1,45.44-8.24q0-8.49,0-17c-3.88.2-7.79.2-11.65.61-32.59,3.43-62.59,14.67-90.88,30.77-7.9,4.5-15.83,9-23,14.79A64.83,64.83,0,0,1,60,220c2.41,2.93,3.92,6.41,5.78,9.67,6,9.49,11.79,19.08,17,29,5.14,7.22,9.07,15.17,13.7,22.69,4.49-2.12,9-4.2,13.45-6.38,2.08-1,3.54-.78,4.53,1.47q10,22.62,20,45.23c2.12,4.48,4.85,8.7,5.77,13.69,2.83,4,4.55,8.49,6.25,13q5.33,11.68,10.66,23.37,10.47,23,20.91,46.07c1.91,4.43,4,8.8,5.68,13.32,1.18,3.2,2.71,3.91,6,2.79,15.13-5.09,30.34-10,45.56-14.79,4.06-1.29,8-3.08,12.35-3.32,2.63-.74,4-2.19,3.19-5.14-4.08-15.61-8.09-31.23-12.13-46.85l-.83-2.52c-1-3.74-2.2-7.45-2.5-11.35-2.46-4.81-2.87-10.15-4-15.3-1.38-2.37-1.6-5.09-2.27-7.67a3,3,0,0,1,1-3.29c3.54-2.85,7.1-5.68,10.63-8.54,2.17-1.77,2.77-.69,2.76,1.48a75,75,0,0,0,.68,13.23c.45,5,2.44,9.59,3.44,14.44l5,10.17c14.18,20.61,33.63,30.62,58.77,29.2a53.48,53.48,0,0,1-.84-10.4,53.48,53.48,0,0,0,.84,10.4,77,77,0,0,0,28.62-7.52c1.67-.82,3.23-2,5.2-2.07l.68-.45c4.69-4,10-7.18,14.59-11.32,2.4-2.16,2.44.46,2.58,2q.91,9.63,1.71,19.26c.43,5.22,1.05,5.68,6.22,4.91q25.31-3.81,50.62-7.51a16.19,16.19,0,0,1,3.17.15c2.7-.32,3.31-1.92,3.28-4.47-.14-11.77-.1-23.55-.13-35.32.15-5.75-.87-11.53.62-17.23h0q23.82,11.77,47.65,23.54,37.56,18.5,75.16,37c2.15,1.49,4.87,2,6.77,3.93,1.16-1.39.73-3.07.73-4.63q.06-24.5.05-49c-.66-8.7-.64-8.59,8-10.14,14.77-2.65,28.95-7.11,42.15-14.38.91-.5,1.92-1.54,2.92-.89s.24,2,.08,3q-2.06,13.13-4.22,26.23c-.32,1.89-.52,3.51,2,3.9q24.07,3.65,48.16,7.34h0c5.3.85,10.61,1.68,15.92,2.56,2.77.45,4.11-.37,4.47-3.47.76-6.62,2-13.19,3-19.78a17.8,17.8,0,0,1,3.95,5.32q6.4,11.88,12.81,23.75c.48.89.67,2.35,2,2.28s1.4-1.48,1.88-2.38c2.89-5.42,5.73-10.85,8.76-16.62,1.34,1.71,1.18,3.2,1.35,4.63,1,8.66,2.18,17.31,3,26,.29,3.14,1.88,4,4.57,4.43,8.48,1.39,16.94,3,25.41,4.41,12.18,2.08,24.37,4.1,36.55,6.15,4.24.88,8.45,2.52,12.84.7a8.45,8.45,0,0,0,0-3.09c-.53-4.89-2.35-9.63-1.68-14.65a14.57,14.57,0,0,1-1.27-3.35c-.29-2.38-.12-4.14,3.39-3.39,5.63,1.22,11.07-1.12,16.63-1.61,5.95-.53,11.36-2.86,16.95-4.61l0,0,1.56-.65c4-1.56,2.45,1.67,2.32,3-.81,8.09-1.81,16.16-2.75,24.23,13.1,1.64,26.08,4.13,39.24,5.28h0c3.43.56,6.85,1.2,10.3,1.65,2.54.34,3.7,1.41,3.69,4.16,0,4.69.57,9.38.45,14.06-.08,3.31,1.23,4.71,4.28,5.64,15.38,4.71,30.71,9.61,46,14.46,1.39.44,2.89.66,4,1.75,2-.49,1.94-2.4,2.42-3.83q21.83-65.6,43.57-131.22,11.81-35.58,23.64-71.16c.37-1.1-.12-3.27,2.26-3V212A18.47,18.47,0,0,1,1007.4,211.7ZM537.62,160.47c4.62-5.24,9-10.71,13.43-16.1a17.1,17.1,0,0,0,1.09-1.67L569,123.12c6.5-9.45,6.5-9.45,13.16-.41,3.82,5.18,7.55,10.41,11.47,15.51,1.38,1.8,1.56,2.84-.8,3.8-2.6,1-5.08,2.37-7.61,3.57l-34.85,17.66h0c-2.56,1.19-5.13,2.33-7.65,3.57-1.48.73-3,1.77-4-.47C537.88,164.51,535.22,163.19,537.62,160.47Zm-183,185.12-.05.09-1.31,1.17c-10.22,11-22.87,17.55-37.59,20.19-1.72.31-3.45.57-5.17.86-6.07,0-12.1-.32-18-2-23.44-6.72-37.76-30.19-33.45-55.08a66.57,66.57,0,0,1,19.76-37.51l.94-.87-.07.07.89-.85-.05.05c.08-.69.59-1,1.14-1.23l.16-.13c8.06-8.09,18-12.74,28.76-16h0c9.43-2,18.87-2.54,28.31,0a45.86,45.86,0,0,1,34.44,42.75C374.24,315.87,367.43,331.94,354.61,345.59Zm187.8,16.5a25.28,25.28,0,0,1-8.08-3.84c-.74-.29-1.51-.53-2.23-.89-26.3-13-52.68-25.77-78.84-39-8-4-15.8-8.36-23.91-12.14q-7.65-3.93-15.32-7.84c-.55-.28-1.19-.73-1.75,0,.15,21.43.27,42.86.5,64.28,0,2.47-1,3.39-3.25,3.47-1.46.05-2.93.21-4.39.32-8,1.17-15.93,2.31-23.87,3.56-1.6.25-2.16-.21-2.29-1.79-.68-8.3-1.42-16.59-2.17-24.89-.15-1.78,1-3,1.73-4.42,10.71-21.26,13.22-42.9,3-65.11-1.85-4.05-3.91-8.15-7.12-11.15-4.42-4.15-5.36-9.14-5.74-14.76-1-14.34-2.27-28.66-3.45-43-.43-5.21-.45-5.21-5.47-3.88-2.33.62-4.69,1.17-7,1.89-2.48.77-3.49-.05-3.37-2.62.09-2,0-4,0-6-1.19-4,.45-5.55,4.37-6.65,15.14-4.23,30.2-8.78,45.21-13.44,3.55-1.11,4.23-.19,4.39,3.23.72,15.45,1.67,30.89,2.61,46.33.09,1.32-.57,3.11,1.44,3.76l22.26-31.78a21.48,21.48,0,0,1-.73-2.54,21.48,21.48,0,0,0,.73,2.54l10.1-13.6c5.74-9.82,5.72-9.79,13.8-2.06,9.42,9,18.77,18.08,28.38,26.88,2.71,2.48,2.77,4,0,6.18a52.42,52.42,0,0,0-4.07,3.83c-6.19,6.68-12.33,13.4-18.58,20-8.55,9.08-17.18,18.08-25.74,27.14-1,1.05-2.29,1.91-2.63,3.47q24.54,9.63,49.09,19.23a5.54,5.54,0,0,1,2.8,2.7C495.06,309.87,513.41,321,536.44,325c5.95,1,6,.92,6,7Zm-67.49-93.77C469,266,463.7,264,458.46,261.91c-1.48-.6-.5-1.48.12-2.16L472.1,245l1.54,1.19A97.37,97.37,0,0,0,474.92,268.32Zm147.93,11.2c-2.09,1.66-4,3.48-6.06,5.23-11.81,10.5-25.86,16.61-40.87,20.9a99.91,99.91,0,0,1-24.66,3.66c-15.6-.2-30-4.12-42.25-14.19-24.45-20-25.62-62.08-2.33-83.14l.95-.88-.05,0c.38-.41.76-.83,1.15-1.24l.14-.12c9.76-9.68,21.85-14.83,35-17.93,2.47-.58,5-1,7.45-1.56,14.26-1.15,28.05.4,40.92,7.2A61.91,61.91,0,0,1,609,210.6c1.42,1.55,1.83,2.74.07,4.34-2.09,1.88-4,4-5.95,6q-21.66,23.21-43.28,46.43c-1,1-2.4,1.83-2.4,3.55,9.22-.08,17.82-2.62,26.07-6.55a.83.83,0,0,1,.93-.67,1.9,1.9,0,0,1,1.57-1.09l4-3.1a1.07,1.07,0,0,1,.16-.36c6.95-7.43,6.95-7.43,14.51-.59,6.07,5.48,12.07,11,18.26,16.37C625,276.71,624.91,277.9,622.85,279.52ZM622.68,247c-.36,2.29-1.15,2.84-3,1.16-2.46-2.28-4.92-4.56-7.42-6.79-1.1-1-1.35-1.92-.27-3.06q6.72-7.12,13.43-14.27l.87.43C625.1,231.93,623.85,239.43,622.68,247Zm33.65,93.16c0,.34,0,.67,0,1C656.31,340.78,656.32,340.45,656.33,340.11Zm.06-1c.05-.66.12-1.33.2-2C656.51,337.78,656.44,338.45,656.39,339.11ZM775,368c-.49,1-1.35.74-2.09.63-2.26-.32-4.5-.73-6.75-1.1-10.5-1.56-21-3.18-31.5-4.61-2.72-.38-3.73-1.49-4.13-4.26-3.36-23.13-6.9-46.22-10.42-69.32a30.45,30.45,0,0,0-.95-3.45c-5.46,11.82-9.52,24.21-14.43,36.25-.55,1.36-1.09,2.73-1.83,4.57A16.48,16.48,0,0,1,700,321c-6.79-14.53-13.55-29.07-20.4-43.57-.55-1.16-.47-3-2.33-3.26q-3.43,22.26-6.88,44.52c-.64,4.1-1.35,8.2-2,12.31-.73,4.92-.7,4.92-5.75,3.89l-1.57-.35-4-.47c-9.26-1.66-18.49-3.47-27.78-4.89-2.9-.45-3.08-1.61-2.65-4,1.64-9.25,3.15-18.53,4.67-27.81a9.92,9.92,0,0,1,3-5.91c4.65-4.47,9-9.26,13.62-13.77,1.7-1.66,2-2.67,0-4.33-3.16-2.5-6-5.36-9.06-8a3.6,3.6,0,0,1-1.52-3.77c4.08-23.82,8-47.67,12-71.51a9.76,9.76,0,0,1,.5-1.53,18.65,18.65,0,0,1,0-2c.75-5.68.76-5.68,6.38-5.73,0-2.6-.07-5.21,0-7.8-.09,2.59,0,5.2,0,7.8,11,0,22.05.11,33.07,0,2.65,0,3.71.79,4.18,3.5,2.8,16,5.81,32,8.74,47.93.26,1.45.23,3,1.57,4q4.29-24.78,8.59-49.54c.42-2.38.91-4.74,1.37-7.11.95-7.93.95-7.93,8.63-7.93,6.19,0,12.4.23,18.57-.09,3.37-.18,4.32,1.16,4.76,4.15,3,19.94,6.05,39.86,9.1,59.79.81,5.31,2.58,10.7,2.16,15.92s-5.64,8.5-8.23,13c-11.93,20.82-15.35,42.3-5.26,64.79,5.66,12.6,15,21.84,27.39,28C773.19,358.39,776.07,366,775,368Zm68.89-39.51.07-.11-.77.9L842,330.52c-6.78,7.08-15.15,11.53-24.22,15a53.55,53.55,0,0,1-22.36,3.73c-4.8-.27-9.26-2.21-13.93-3.14-16.08-6.85-26-18.73-28.38-36.15-2.58-19,4.44-34.94,17.23-48.68.24-.24.48-.48.73-.71l0,0a1.7,1.7,0,0,1,1.31-1.22l.83-.77-.08.05c2.13-3.28,5.73-4.92,8.43-7.56,11.78-7.41,24.39-11.66,38.55-10.91,24.92,1.31,43.61,21.56,42.65,46.62-.56,14.83-6.22,27.65-15.82,38.83a9,9,0,0,1-1.52,1.19A2.22,2.22,0,0,1,843.93,328.5ZM868,378.67c0-.36.07-.72.11-1.08C868.09,378,868.05,378.31,868,378.67Zm120.9-151.83Q970.34,283,951.79,339.28c-7.41,22.44-14.92,44.84-22.2,67.32-1.2,3.71-2.89,4.22-5.93,2.39-8-2.15-16-4.27-24-6.51a3.11,3.11,0,0,1-2.56-3.41c.38-23.09-.85-46.17-1.21-69.25-.2-12.62-.53-25.24-.8-37.86-2.59,4.54-2.56,9.73-3.46,14.65q-6,32.63-11.49,65.32c-.91,5.38-4,2.55-6.55,2.26l-4.58-.43c-6.63-1.11-13.24-2.34-19.89-3.24-2.39-.32-3.23-1-3-3.49.75-6.68,1.35-13.38,1.89-20.08.17-2.15,1.61-3.26,3-4.56,17.19-16.56,27-36.34,25.93-60.65a56.72,56.72,0,0,0-16.24-38.06,7.47,7.47,0,0,1-2.26-6.78c.84-7.21,1.39-14.46,2.26-21.66.34-2.87-.26-4.61-3.39-4.91a18,18,0,0,1-2.72-.73c-6.35-1.67-6.35-1.67-5.83-8.12-.13-9.56-.14-9.52,9-7.63,3.66.75,7.35,1.3,11,2,11.55,2.41,23.09,4.92,34.68,7.16,2.73.53,3.68,1.73,4.22,4.35,5.78,27.86,11.71,55.69,17.59,83.54.27,1.31.35,2.68,1.55,3.59q6.33-26.62,12.66-53.25c1.5-6.26,3.08-12.5,4.61-18.76,1.9-9.07,1.91-9.14,10.84-7.23,10.64,2.28,21.21,4.92,31.89,7C990.66,222.89,989.66,224.6,988.92,226.84Z"/><path class="d" d="M845.46,326.77l0,0v0Z"/><path class="d" d="M772.45,259.3h0l-.11.1Z"/><path class="c" d="M699.1,156.05c-.24,9.07-.24,9.07-9.18,9.07l-6.82,0C687.93,161.19,693.66,158.88,699.1,156.05Z"/><path class="e" d="M703.86,236.3q4.29-24.78,8.59-49.54c.42-2.38.91-4.74,1.37-7.11,6.6,0,13.2.07,19.79,0,2.65,0,3.87,1,4.27,3.64q5.54,36.48,11.22,72.93a9.09,9.09,0,0,1-2.18,7.82,72.93,72.93,0,0,0-9.82,15.71c-15.72,32.3-5.43,70.09,26.73,85.71a5.12,5.12,0,0,1,2.37,2.11c-10.5-1.56-21-3.18-31.5-4.61-2.72-.38-3.73-1.49-4.13-4.26-3.36-23.13-6.9-46.22-10.42-69.32a31.82,31.82,0,0,0-.94-3.44c-4.31,1.45-6.82,4.75-8.5,8.68C707,303.32,704.17,312.44,700,321c-6.79-14.53-13.55-29.07-20.4-43.57-.55-1.16-.47-3-2.33-3.26a20.6,20.6,0,0,0-9,15.21c-1.93,15.11-4.7,30.11-7.13,45.16l-4-.47c-9.26-1.66-18.49-3.47-27.78-4.89-2.9-.45-3.08-1.61-2.65-4,1.64-9.25,3.15-18.53,4.67-27.81a9.92,9.92,0,0,1,3-5.91c4.65-4.47,9-9.26,13.62-13.77,1.7-1.66,2-2.67,0-4.33-3.16-2.5-6-5.36-9.06-8a3.6,3.6,0,0,1-1.52-3.77c4.08-23.82,8-47.67,12-71.51a9.76,9.76,0,0,1,.5-1.53c10.2,0,20.39.13,30.59,0,3.29-.05,4.86,1,5.41,4.34,1.6,9.64,3.42,19.26,5.17,28.88,1.24,6.85,2.48,13.71,3.8,20.55.22,1.1.41,3.48,2.3,1.72C699.64,241.71,702.85,239.92,703.86,236.3Z"/><path class="e" d="M551.26,309.31c-15.6-.2-30-4.12-42.25-14.19-24.45-20-25.62-62.08-2.33-83.14l.95-.88-.05,0c.72-.1,1.19-.44,1.15-1.24l.14-.12c1.85.7,3-.72,4.4-1.45,14.26-7.7,29.32-11.57,45.66-10.22,17.94,1.48,32.67,8.93,44.15,22.8q-21.66,23.21-43.28,46.43c-1,1-2.4,1.83-2.4,3.55-2.75,1.1-4.17,3.7-6.25,5.55-.48.43-1.1,1-.75,1.71.44.94,1.36.6,2.13.52,6.6-.65,13.15-1.76,19.06-4.82,4.53-2.35,9.7-4.17,11.91-9.53l0,.07,1-.72h0a1.65,1.65,0,0,0,1.57-1.1l4-3.1c2,2.91,4.77,5,7.34,7.37,6.53,5.94,13,11.93,19.52,17.9-11.81,10.5-25.86,16.61-40.87,20.9A99.91,99.91,0,0,1,551.26,309.31Zm-19.07-39.46c2.14,1.59,3-.3,4.1-1.52,11.9-13.47,23.73-27,35.74-40.37,2.22-2.47,2.21-3.78-.38-6-10.7-9.08-29-11.41-43,2.55-1.5-3.05-2.38,0-3,.52-11.44,11-13.41,28.62-4.82,42.34C525.14,274.15,525.71,274.27,532.19,269.85Z"/><path class="e" d="M550.37,163.25c-2.56,1.19-5.13,2.33-7.65,3.57-1.48.73-3,1.77-4-.47-.85-1.84-3.51-3.16-1.11-5.88,4.62-5.24,9-10.71,13.43-16.1a17.1,17.1,0,0,0,1.09-1.67L569,123.12l16.22,22.47Z"/><path class="f" d="M586,262.58a1.65,1.65,0,0,1-1.57,1.1A1.89,1.89,0,0,1,586,262.58Z"/><path class="g" d="M566,104.53l.6-.68Z"/><path class="f" d="M584.42,263.67l-1,.72A.85.85,0,0,1,584.42,263.67Z"/><path class="e" d="M869,373.76c-6.63-1.11-13.24-2.34-19.89-3.24-2.39-.32-3.23-1-3-3.49.75-6.68,1.35-13.38,1.89-20.08.17-2.15,1.61-3.26,3-4.56,17.19-16.56,27-36.34,25.93-60.65a56.72,56.72,0,0,0-16.24-38.06,7.47,7.47,0,0,1-2.26-6.78c.84-7.21,1.39-14.46,2.26-21.66.34-2.87-.26-4.61-3.39-4.91a18,18,0,0,1-2.72-.73c-6.35-1.67-6.35-1.67-5.83-8.12,15.42,3.06,30.82,6.18,46.26,9.11,3.15.6,4.45,2.15,5.07,5.19,4,19.73,8.25,39.44,12.39,59.15,1.77,8.41,3.49,16.84,5.33,25.23.25,1.17.31,3.83,2.52,1.73,2.38-2.25,5.37-4.08,6.51-7.45q6.33-26.62,12.66-53.25c1.5-6.26,3.08-12.5,4.61-18.76,11.17,2.44,22.31,5,33.52,7.24,3.78.75,4.42,2.08,3.21,5.71-10.12,30.37-20,60.8-30,91.21Q937.24,367.8,923.66,409c-8-2.15-16-4.27-24-6.51a3.11,3.11,0,0,1-2.56-3.41c.38-23.09-.85-46.17-1.21-69.25-.2-12.62-.53-25.24-.8-37.86.11-3.11-.28-3.54-1.48-2.35-2.85,2.84-6.5,4.9-7.22,9.7-1.78,11.79-4.17,23.48-6.15,35.25-2.23,13.21-5.17,26.3-6.65,39.63Z"/><path class="e" d="M534.33,358.25c-.74-.29-1.51-.53-2.23-.89-26.3-13-52.68-25.77-78.84-39-8-4-15.8-8.36-23.91-12.14q-7.65-3.93-15.32-7.84c-.55-.28-1.19-.73-1.75,0-2.83,2.88-7.29,4.68-7.3,9.55,0,19.5.09,39,.16,58.52-8,1.17-15.93,2.31-23.87,3.56-1.6.25-2.16-.21-2.29-1.79-.68-8.3-1.42-16.59-2.17-24.89-.15-1.78,1-3,1.73-4.42,10.71-21.26,13.22-42.9,3-65.11-1.85-4.05-3.91-8.15-7.12-11.15-4.42-4.15-5.36-9.14-5.74-14.76-1-14.34-2.27-28.66-3.45-43-.43-5.21-.45-5.21-5.47-3.88-2.33.62-4.69,1.17-7,1.89-2.48.77-3.49-.05-3.37-2.62.09-2,0-4,0-6,1.82-.43,3.67-.78,5.46-1.31,12.23-3.6,24.47-7.21,36.67-10.91,2.46-.74,3.69-.59,3.84,2.46.72,14.72,1.57,29.44,2.45,44.16.18,3,.65,6,1.09,9.95l8.51-11.11,22.26-31.78,10.1-13.6c8.07,7.62,16,15.41,24.26,22.8,4.56,4.06,8.39,9,13.84,12-6.19,6.68-12.33,13.4-18.58,20-8.55,9.08-17.18,18.08-25.74,27.14-1,1.05-2.29,1.91-2.63,3.47-1.29,1.17-2.64,2.29-3.86,3.53-3.57,3.66-3.5,4,1.18,5.85q20.78,8.38,41.58,16.74c2.14.86,4.05,1.84,5.36,4,12.72,20.85,31.74,31.93,55.54,35.38,2.72.39,3.7,1.56,3.66,4.18C534.31,344.26,534.34,351.26,534.33,358.25Z"/><path class="e" d="M310.49,367.9c-6.07,0-12.1-.32-18-2-23.44-6.72-37.76-30.19-33.45-55.08a66.57,66.57,0,0,1,19.76-37.51l.94-.87-.07.07.89-.85-.05.05c.73-.09,1.19-.42,1.14-1.23l.16-.13c1.47.67,2.6-.17,3.74-.86a63.31,63.31,0,0,1,25.41-8.7c23.74-2.82,46.92,9.76,53,35.07,3.69,15.31.56,29.59-6.59,43.27-1.08,2.07-3.18,3.75-2.8,6.47l-.05.09c-.81,0-1.17.45-1.31,1.17-10.22,11-22.87,17.55-37.59,20.19C313.94,367.35,312.21,367.61,310.49,367.9Zm30.72-55.75.89-.82c8.81-9.79,11.11-20.52,4.66-32.51-2.45-.71-8.91,4.87-8.4,7.7s-.48,5.33-.35,8c-2.11,1.79-4.79,2-7.32,2.59a21.08,21.08,0,0,1-15.15-5.26c-3.67-4.94-5.79-10.14-2.6-16.18l.54-1,.11.25-.13-.24c5.91.6,8.9-3.74,12.16-7.39,1.5-1.66,0-2-1.47-1.77-10-.33-18.5,3-25.41,10.25l-.95,1.08.11-.08a1.32,1.32,0,0,0-1.11,1.45l0,0c-.62.22-1.4.26-1.84.67-10.65,9.78-14.81,27.74-.86,40.17,12.62,11.26,31.51,10,43.42-2.08.93-1,2-1.82,1.93-3.37v.06l.94-.78,0,0,.88-.78Z"/><path class="f" d="M353.25,346.85c.14-.72.5-1.2,1.31-1.17Z"/><path class="e" d="M181.08,383.19q-15.65-35.13-31.29-70.28c-8.86-19.87-17.85-39.68-26.58-59.61-1.34-3.07-2.55-3.26-5.2-1.78-4,2.22-8.2,4-12.26,6.14-1.59.83-2.59.81-3.58-.89Q90.34,236.39,78.4,216.05c.71-.38,1.43-.75,2.14-1.14,32.81-17.88,67.34-29.23,105.27-27.14,16.79.92,32.68,4.77,46.41,15.3,15.12,11.61,24,26.27,23.32,45.84-.39,11-4.08,21-9.08,30.69-1,1.87-2.46,3.6-2.15,5.95l0,0c-1.09.18-1.56.77-1.3,1.88l-.21-.21.21.22a1.27,1.27,0,0,0-1.21,1.33l0-.05-.85,1.05c-8.32,10.69-18.86,18.86-30,26.42-.91.62-2.43.71-2.42,2.33-8,3.17-8.64,4.61-6.47,12.53,3.65,13.34,7.28,26.7,10.69,40.11,2.9,11.45,6.58,22.7,8.77,34.34-8,2.57-16.06,5-24,7.77-2.32.81-2.94,0-3.78-1.89C189.67,401.93,185.35,392.57,181.08,383.19Zm22.73-85.75c3.66-2.72,7.41-5.33,10.95-8.2,6.54-5.29,12.3-11.31,15.13-19.46,6.57-18.93-1.32-38.6-25.66-39.64-7.58-.32-14.53,2.13-21.29,5.25-.16-.58-.49-1.1-1.12-.69a8.66,8.66,0,0,0-3.45,10.1q7.71,25.4,15.53,50.75C196.44,303.75,197.55,303.92,203.81,297.44Z"/><path class="f" d="M243,287.4c-.26-1.11.21-1.7,1.3-1.88A2.35,2.35,0,0,1,243,287.4Z"/><path class="f" d="M241.83,288.74a1.27,1.27,0,0,1,1.21-1.33A1.78,1.78,0,0,1,241.83,288.74Z"/><path class="f" d="M281.66,270.47c0,.81-.41,1.14-1.14,1.23C280.6,271,281.11,270.72,281.66,270.47Z"/><path class="f" d="M280.57,271.65l-.89.85Z"/><path class="f" d="M279.75,272.43l-.94.87Z"/><path class="f" d="M241,289.74l.85-1.05Z"/><path class="e" d="M781.53,346.1c-16.08-6.85-26-18.73-28.38-36.15-2.58-19,4.44-34.94,17.23-48.68l.73-.71,0,0a1.53,1.53,0,0,0,1.31-1.22l-.11.1.94-.87-.08.05c2.09.14,3.45-1.38,5.06-2.27,11.31-6.27,23.19-9.53,36.31-8.15,23.27,2.45,40.29,20.8,40.48,44.12a60.94,60.94,0,0,1-8,30.06c-.76,1.38-1.94,2.64-1.61,4.43l0,0a1.6,1.6,0,0,0-1.57,1.77l.07-.11c-.28.33-.55.66-.83,1l.09-.1a1.52,1.52,0,0,0-1.22,1.25c-6.78,7.08-15.15,11.53-24.22,15a53.55,53.55,0,0,1-22.36,3.73C790.66,349,786.2,347,781.53,346.1Zm5-83,.12-.11a1.52,1.52,0,0,0-1.06,1.52l0,0c-6.3,3.25-12.32,16.59-11,24.45,3.3,20.18,25.41,30.25,43.58,19.71,4.22-2.44,8.83-4.64,11-9.53l0,.07.89-.93c.76-.74,1.53-1.46,2.26-2.23,8.36-8.94,9.82-21.83,3.48-30.71-.79-.52-1.18.18-1.73.52-5.67,3.43-6.28,9-6.42,14.85-3.48,2.55-7.49,2.74-11.51,2.29-11.41-1.26-18-12-13.39-21.68,5.43-.28,9.6-2.86,12.83-7.09.54-.72,2.44-1.69,0-2.52C804.4,250.43,795,253.73,787.36,262Z"/><path class="f" d="M843.93,328.5a1.6,1.6,0,0,1,1.57-1.77A2.23,2.23,0,0,1,843.93,328.5Z"/><path class="f" d="M842,330.52a1.52,1.52,0,0,1,1.22-1.25C842.85,329.69,842.44,330.1,842,330.52Z"/><path class="b" d="M829.91,356.67l-1.56.65Z"/><path class="f" d="M843.17,329.37c.28-.32.55-.65.83-1C843.73,328.72,843.45,329.05,843.17,329.37Z"/><path class="f" d="M508.73,209.9c0,.8-.43,1.14-1.15,1.24C508,210.73,508.34,210.31,508.73,209.9Z"/><path class="f" d="M507.63,211.1l-.95.88Z"/><path class="f" d="M772.45,259.3a1.53,1.53,0,0,1-1.31,1.22A1.7,1.7,0,0,1,772.45,259.3Z"/><path class="f" d="M773.28,258.53l-.94.87Z"/><path class="f" d="M771.11,260.56l-.73.71C770.62,261,770.86,260.79,771.11,260.56Z"/><path class="g" d="M528.69,224.53c14-14,32.26-11.63,43-2.55,2.59,2.2,2.6,3.51.38,6-12,13.37-23.84,26.9-35.74,40.37-1.08,1.22-2,3.11-4.1,1.52-4.35-4.11-8-8.67-9.91-14.46C518.59,243.9,521.22,233.71,528.69,224.53Zm25.51,6.87a4.31,4.31,0,0,0,3-3.87c0-.89-.85-1.31-1.64-1.54-4.59-1.32-15.07.69-16.86,5.36-7.57,3.62-8.25,16.2-5.5,21.84.75,1.53,1.42,1.31,2.29.27C541.67,246.05,548.65,239.34,554.2,231.4Z"/><path class="h" d="M298.74,275.8c6.91-7.28,15.43-10.58,25.41-10.25-.27,1.77-2,1.5-3,2.06-3.21,1.68-6.18,3.56-7.64,7.1l.13.24-.11-.25-.54,1c-3.19,6-1.07,11.24,2.6,16.18-2.15.86-1.75,2.76-1.82,4.45-.3,7.07.73,14.18-.81,21.19-11.88-3.67-19.3-13.14-19.78-25-.21-5.15,1.63-9.69,3.68-14.22l0,0c.74-.2,1-.8,1.11-1.45l-.11.08Z"/><path class="g" d="M330.8,317.38a29.15,29.15,0,0,1-17.89.11c1.54-7,.51-14.13.81-21.2.07-1.69-.33-3.59,1.82-4.45a21.08,21.08,0,0,0,15.15,5.26Q330.75,307.24,330.8,317.38Z"/><path class="i" d="M330.8,317.38q-.06-10.14-.11-20.28c2.53-.6,5.21-.8,7.32-2.59,3.61-1.39,5.58-4.31,7.27-7.58,1.34-2.59.39-5.52,1.48-8.11,6.45,12,4.15,22.72-4.66,32.51l-.89.82h0l-.88.78,0,0a.87.87,0,0,0-.94.78v-.06C336.36,314.37,334,316.85,330.8,317.38Z"/><path class="f" d="M297.9,276.8c-.15.65-.37,1.25-1.11,1.45A1.32,1.32,0,0,1,297.9,276.8Z"/><path class="f" d="M340.35,312.92l.88-.78Z"/><path class="f" d="M298.74,275.8l-.95,1.08Z"/><path class="f" d="M312.94,275.66l.54-1Z"/><path class="f" d="M339.45,313.67a.87.87,0,0,1,.94-.78Z"/><path class="f" d="M341.21,312.15l.89-.82Z"/><path class="j" d="M182.94,235.39c6.76-3.12,13.71-5.57,21.29-5.25,24.34,1,32.23,20.71,25.66,39.64-2.83,8.15-8.59,14.17-15.13,19.46-3.54,2.87-7.29,5.48-10.95,8.2-1.81.7-2.28-.42-2.72-1.86C195,275.54,188.27,255.67,182.94,235.39Zm25.87,41.19c1.95-.94,3.61-2.08,3.68-3.53.22-4.86,1.82-9.63.53-14.62-1.35-5.18-4.77-8.63-10-9.63-2.17-.41-2.75.14-2.12,2.18C203.48,259.4,206.09,267.82,208.81,276.58Z"/><path class="g" d="M835.72,265.28c6.34,8.88,4.88,21.77-3.48,30.71-.73.77-1.5,1.49-2.26,2.23l-.89.93,0-.07-3.88,2.05c-17.33,9.26-38.75-.18-42.56-18.76-1.3-6.35.29-12.21,2.89-17.92l0,0a1.71,1.71,0,0,0,1.06-1.52l-.12.11c.29-.34.57-.69.85-1,7.59-8.31,17-11.61,28.15-10.39-5.09,2.12-10.52,3.79-12.84,9.61-4.58,9.7,2,20.42,13.39,21.68,4,.45,8,.26,11.51-2.29C834,277.49,836.4,272.2,835.72,265.28Z"/><path class="k" d="M603.08,220.91c-11.48-13.87-26.21-21.32-44.15-22.8-16.34-1.35-31.4,2.52-45.66,10.22-1.36.73-2.55,2.15-4.4,1.45,9.76-9.68,21.85-14.83,35-17.93,2.47-.58,5-1,7.45-1.56,14.26-1.15,28.05.4,40.92,7.2A61.91,61.91,0,0,1,609,210.6c1.42,1.55,1.83,2.74.07,4.34C606.94,216.82,605.05,218.91,603.08,220.91Z"/><path class="k" d="M703.86,236.3c-1,3.62-4.22,5.41-6.7,7.71-1.89,1.76-2.08-.62-2.3-1.72-1.32-6.84-2.56-13.7-3.8-20.55-1.75-9.62-3.57-19.24-5.17-28.88-.55-3.31-2.12-4.39-5.41-4.34-10.2.17-20.39,0-30.59,0a18.65,18.65,0,0,1,0-2c.75-5.68.76-5.68,6.38-5.73,11,0,22.05.11,33.07,0,2.65,0,3.71.79,4.18,3.5,2.8,16,5.81,32,8.74,47.93C702.55,233.75,702.52,235.29,703.86,236.3Z"/><path class="k" d="M616.79,284.75c-6.5-6-13-12-19.52-17.9-2.57-2.34-5.35-4.46-7.34-7.37a1.07,1.07,0,0,1,.16-.36c6.95-7.43,6.95-7.43,14.51-.59,6.07,5.48,12.07,11,18.26,16.37,2.09,1.81,2,3,0,4.62S618.81,283,616.79,284.75Z"/><path class="k" d="M585.22,145.59,569,123.12c6.5-9.45,6.5-9.45,13.16-.41,3.82,5.18,7.55,10.41,11.47,15.51,1.38,1.8,1.56,2.84-.8,3.8C590.23,143.07,587.75,144.39,585.22,145.59Z"/><path class="k" d="M583.5,264.32c-2.21,5.36-7.38,7.18-11.91,9.53-5.91,3.06-12.46,4.17-19.06,4.82-.77.08-1.69.42-2.13-.52-.35-.73.27-1.28.75-1.71,2.08-1.85,3.5-4.45,6.25-5.55C566.63,270.81,575.24,268.27,583.5,264.32Z"/><path class="k" d="M926.84,294.44c-1.14,3.37-4.13,5.2-6.51,7.45-2.21,2.1-2.27-.56-2.52-1.73-1.84-8.39-3.56-16.82-5.33-25.23-4.14-19.71-8.34-39.42-12.39-59.15-.62-3-1.92-4.59-5.07-5.19-15.44-2.93-30.84-6.05-46.26-9.11-.13-9.56-.14-9.52,9-7.63,3.66.75,7.35,1.3,11,2,11.55,2.41,23.09,4.92,34.68,7.16,2.73.53,3.68,1.73,4.22,4.35,5.78,27.86,11.71,55.69,17.59,83.54C925.56,292.16,925.64,293.53,926.84,294.44Z"/><path class="k" d="M923.66,409q13.58-41.19,27.14-82.4c10-30.41,19.92-60.84,30-91.21,1.21-3.63.57-5-3.21-5.71-11.21-2.23-22.35-4.8-33.52-7.24,1.9-9.07,1.91-9.14,10.84-7.23,10.64,2.28,21.21,4.92,31.89,7,3.82.73,2.82,2.44,2.08,4.68q-18.58,56.22-37.13,112.44c-7.41,22.44-14.92,44.84-22.19,67.32C928.39,410.31,926.7,410.82,923.66,409Z"/><path class="k" d="M873.57,374.19c1.48-13.33,4.42-26.42,6.65-39.63,2-11.77,4.37-23.46,6.15-35.25.72-4.8,4.37-6.86,7.22-9.7,1.2-1.19,1.59-.76,1.48,2.35-2.59,4.54-2.56,9.73-3.46,14.65q-6,32.63-11.49,65.32C879.21,377.31,876.1,374.48,873.57,374.19Z"/><path class="k" d="M354.61,345.59c-.38-2.72,1.72-4.4,2.8-6.47,7.15-13.68,10.28-28,6.59-43.27-6.11-25.31-29.29-37.89-53-35.07a63.31,63.31,0,0,0-25.41,8.7c-1.14.69-2.27,1.53-3.74.86,8.06-8.09,18-12.74,28.76-16,9.43-2,18.87-2.54,28.31,0a45.86,45.86,0,0,1,34.44,42.75C374.24,315.87,367.43,331.94,354.61,345.59Z"/><path class="k" d="M407.43,227.52l-8.51,11.11c-.44-3.95-.91-6.95-1.09-9.95-.88-14.72-1.73-29.44-2.45-44.16-.15-3.05-1.38-3.2-3.84-2.46-12.2,3.7-24.44,7.31-36.67,10.91-1.79.53-3.64.88-5.46,1.31-1.19-4,.45-5.54,4.37-6.64,15.14-4.23,30.2-8.78,45.21-13.44,3.55-1.11,4.23-.19,4.39,3.23.72,15.45,1.67,30.89,2.61,46.33C406.08,225.08,405.42,226.87,407.43,227.52Z"/><path class="k" d="M405.14,366.47c-.07-19.51-.18-39-.16-58.52,0-4.87,4.47-6.67,7.3-9.55.15,21.43.27,42.86.5,64.28,0,2.47-1,3.39-3.25,3.47C408.07,366.2,406.6,366.36,405.14,366.47Z"/><path class="k" d="M244.31,285.55c-.31-2.35,1.18-4.08,2.15-5.95,5-9.66,8.69-19.7,9.08-30.69.69-19.57-8.2-34.23-23.32-45.84-13.73-10.53-29.62-14.38-46.41-15.3-37.93-2.09-72.46,9.26-105.27,27.14-.71.39-1.43.76-2.14,1.14-2.58-2.21-.4-3,1.19-4a241.68,241.68,0,0,1,53.76-24.32,191.35,191.35,0,0,1,45.44-8.24c12-.16,24,.56,35.65,3.46a67.93,67.93,0,0,1,39,25.61c9,12,11.73,25.46,8.77,40.1A79.7,79.7,0,0,1,244.31,285.55Z"/><path class="k" d="M221.64,405.47c-2.19-11.64-5.87-22.89-8.77-34.34-3.41-13.41-7-26.77-10.69-40.11-2.17-7.92-1.52-9.36,6.47-12.53,3.54,10.4,5.67,21.19,8.47,31.79,4.29,16.22,8.38,32.5,12.77,48.69.76,2.84.69,4.22-2.52,4.69A34.57,34.57,0,0,0,221.64,405.47Z"/><path class="k" d="M845.46,326.77c-.33-1.79.85-3,1.61-4.43a60.94,60.94,0,0,0,8-30.06c-.19-23.32-17.21-41.67-40.48-44.12-13.12-1.38-25,1.88-36.31,8.15-1.61.89-3,2.41-5.06,2.27,2.13-3.28,5.73-4.92,8.43-7.56,11.78-7.41,24.39-11.66,38.55-10.91,24.92,1.31,43.61,21.56,42.65,46.62-.56,14.83-6.22,27.65-15.82,38.83A9.75,9.75,0,0,1,845.46,326.77Z"/><path class="k" d="M534.33,358.25c0-7,0-14,.07-21,0-2.62-.94-3.79-3.66-4.18-23.8-3.45-42.82-14.53-55.54-35.38-1.31-2.14-3.22-3.12-5.36-4Q449,285.36,428.26,277c-4.68-1.89-4.75-2.19-1.18-5.85,1.22-1.24,2.57-2.36,3.86-3.53q24.54,9.63,49.09,19.23a5.54,5.54,0,0,1,2.8,2.7C495.06,309.87,513.41,321,536.44,325c5.95,1,6,.92,6,7v30.07A25.28,25.28,0,0,1,534.33,358.25Z"/><path class="k" d="M477.89,217c-5.45-3-9.28-8-13.84-12-8.28-7.39-16.19-15.18-24.26-22.8,5.74-9.82,5.72-9.79,13.8-2.06,9.42,9,18.77,18.08,28.38,26.88,2.71,2.48,2.77,4,0,6.18A52.42,52.42,0,0,0,477.89,217Z"/><path class="k" d="M766.2,367.54a5.12,5.12,0,0,0-2.37-2.11c-32.16-15.62-42.45-53.41-26.73-85.71A72.93,72.93,0,0,1,746.92,264a9.09,9.09,0,0,0,2.18-7.82q-5.64-36.47-11.22-72.93c-.4-2.64-1.62-3.68-4.27-3.64-6.59.1-13.19,0-19.79,0,.95-7.93.95-7.93,8.63-7.93,6.19,0,12.4.23,18.57-.09,3.37-.18,4.32,1.16,4.76,4.15,3,19.94,6.05,39.86,9.1,59.79.81,5.31,2.58,10.7,2.16,15.92s-5.64,8.5-8.23,13c-11.93,20.82-15.35,42.3-5.26,64.79,5.66,12.6,15,21.84,27.39,28,2.25,1.12,5.13,8.68,4.1,10.74-.49,1-1.35.74-2.09.63C770.69,368.32,768.45,367.91,766.2,367.54Z"/><path class="k" d="M661.15,334.56c2.43-15.05,5.2-30.05,7.13-45.16a20.6,20.6,0,0,1,9-15.21q-3.43,22.26-6.88,44.52c-.64,4.1-1.35,8.2-2,12.31-.73,4.92-.7,4.92-5.75,3.89Z"/><path class="k" d="M700,321c4.13-8.58,6.91-17.7,10.67-26.43,1.68-3.93,4.19-7.23,8.5-8.68-5.47,11.81-9.53,24.2-14.44,36.24-.55,1.36-1.09,2.73-1.83,4.57A16.48,16.48,0,0,1,700,321Z"/><path class="k" d="M528.69,224.53c-7.47,9.18-10.1,19.37-6.41,30.86,1.87,5.79,5.56,10.35,9.91,14.46-6.48,4.42-7.05,4.3-11.28-2.46-8.59-13.72-6.62-31.38,4.82-42.34C526.31,224.5,527.19,221.48,528.69,224.53Z"/><path class="k" d="M296.81,278.22c-2.05,4.53-3.89,9.07-3.68,14.22.48,11.9,7.9,21.37,19.78,25.05a29.15,29.15,0,0,0,17.89-.11c3.21-.53,5.56-3,8.66-3.77.1,1.55-1,2.42-1.93,3.37-11.91,12.12-30.8,13.34-43.42,2.08-13.95-12.43-9.79-30.39.86-40.17C295.41,278.48,296.19,278.44,296.81,278.22Z"/><path class="k" d="M346.76,278.82c-1.09,2.59-.14,5.52-1.48,8.11-1.69,3.27-3.66,6.19-7.27,7.58-.13-2.66.85-5.22.35-8S344.31,278.11,346.76,278.82Z"/><path class="k" d="M313.46,274.71c1.46-3.54,4.43-5.42,7.64-7.1,1.07-.56,2.78-.29,3-2.06,1.46-.19,3,.11,1.47,1.77C322.36,271,319.37,275.31,313.46,274.71Z"/><path class="k" d="M182.94,235.39c5.33,20.28,12,40.15,18.15,60.19.44,1.44.91,2.56,2.72,1.86-6.26,6.48-7.37,6.31-9.91-1.89Q186,270.2,178.37,244.8a8.66,8.66,0,0,1,3.45-10.1C182.45,234.29,182.78,234.81,182.94,235.39Z"/><path class="k" d="M785.59,264.45c-2.6,5.71-4.19,11.57-2.89,17.92,3.81,18.58,25.23,28,42.56,18.76l3.88-2.05c-2.17,4.89-6.78,7.09-11,9.53-18.17,10.54-40.28.47-43.58-19.71C773.27,281,779.29,267.7,785.59,264.45Z"/><path class="k" d="M835.72,265.28c.68,6.92-1.73,12.21-8.15,15.37.14-5.82.75-11.42,6.42-14.85C834.54,265.46,834.93,264.76,835.72,265.28Z"/><path class="k" d="M802.67,261.26c2.32-5.82,7.75-7.49,12.84-9.61,2.43.83.53,1.8,0,2.52C812.27,258.4,808.1,261,802.67,261.26Z"/><path class="f" d="M786.63,263a1.71,1.71,0,0,1-1.06,1.52A1.52,1.52,0,0,1,786.63,263Z"/><path class="f" d="M829.09,299.15l.89-.93Z"/><path class="f" d="M787.36,262c-.28.34-.56.69-.85,1C786.8,262.73,787.08,262.38,787.36,262Z"/></svg>